<?xml version="1.0" standalone="no"?><!DOCTYPE svg PUBLIC "-//W3C//DTD SVG 1.1//EN" "http://www.w3.org/Graphics/SVG/1.1/DTD/svg11.dtd"><svg t="1541990674560" class="icon" style="" viewBox="0 0 1024 1024" version="1.1" xmlns="http://www.w3.org/2000/svg" p-id="2805" xmlns:xlink="http://www.w3.org/1999/xlink" width="200" height="200"><defs><style type="text/css"></style></defs><path d="M508.16 64.92928C261.25312 64.92928 61.08928 265.09312 61.08928 512c0 246.90816 200.16384 447.072 447.072 447.072 246.90688 0 447.07072-200.16384 447.07072-447.072C955.23072 265.09312 755.06688 64.92928 508.16 64.92928m0 561.21728c-63.03744 0-114.14656-51.10016-114.14656-114.14656 0-63.03616 51.10912-114.14528 114.14656-114.14528 63.03744 0 114.14528 51.10912 114.14528 114.14528 0.00128 63.0464-51.10784 114.14656-114.14528 114.14656m0-190.24384c-42.02624 0-76.09856 34.0736-76.09856 76.09728 0 42.02496 34.07232 76.09856 76.09856 76.09856 42.02368 0 76.09728-34.0736 76.09728-76.09856 0-42.02368-34.0736-76.09728-76.09728-76.09728" fill="#FFFFFF" p-id="2806"></path><path d="M588.75264 431.18336c0.07424 0.06528 0.13952 0.13952 0.224 0.2048a0.51712 0.51712 0 0 1-0.1024-0.1024c-0.03712-0.03712-0.08448-0.064-0.1216-0.1024M394.01344 512c0-19.0144 4.71936-36.9152 12.9408-52.66944-51.49952 83.296-136.59776 290.47296-136.59776 290.47296s207.15904-85.09696 290.47424-136.59648c-15.76448 8.2304-33.65376 12.93952-52.66944 12.93952-63.03872 0-114.14784-51.10016-114.14784-114.14656m125.4144-113.57952a115.8336 115.8336 0 0 0-11.26656-0.56704 115.84 115.84 0 0 0-11.26784 0.56704 115.6672 115.6672 0 0 1 22.5344 0m-91.98208 32.86528c-0.02688 0.02816-0.064 0.07424-0.1024 0.11136l0.21376-0.21376c-0.03712 0.0384-0.07296 0.06528-0.11136 0.1024" fill="#EE6A56" p-id="2807"></path><path d="M745.96224 274.1952S540.40192 358.71744 456.4736 410.32064c15.53152-7.91424 33.06112-12.4672 51.6864-12.4672 63.04512 0 114.14528 51.10912 114.14528 114.14528a113.70496 113.70496 0 0 1-13.5168 53.87648c51.42656-82.75456 137.17376-291.68 137.17376-291.68m-343.7184 280.33152l-0.07424-0.15744 0.07424 0.15744z m-0.07296-0.15744l0 0M508.16 626.14656c-47.99872 0-89.06624-29.64096-105.91616-71.61984 5.536 13.98912 13.88672 27.13472 25.20064 38.45632 44.57984 44.61568 116.8512 44.61568 161.42848 0 1.77408-1.7728 3.69792-4.0384 5.6768-6.51136-20.92928 24.25472-51.8336 39.67488-86.38976 39.67488m-108.92544-80.12928c-0.11136-0.37248-0.24064-0.73344-0.35328-1.10464 0.11264 0.3712 0.24192 0.73216 0.35328 1.10464m-0.35328-1.10464a115.14752 115.14752 0 0 1-2.35904-9.17888c0.65024 3.09376 1.45792 6.14016 2.35904 9.17888" fill="#86AEDD" p-id="2808"></path><path d="M508.16 797.3632a9.52192 9.52192 0 0 0-9.51424 9.51296v38.05056c0 5.248 4.26496 9.51168 9.51424 9.51168 5.248 0 9.51168-4.26368 9.51168-9.51168v-38.05056A9.51808 9.51808 0 0 0 508.16 797.3632m0-618.28864a9.52064 9.52064 0 0 0-9.51424 9.51296v38.04928c0 5.248 4.26496 9.51168 9.51424 9.51168 5.248 0 9.51168-4.26368 9.51168-9.51168v-38.04928a9.5168 9.5168 0 0 0-9.51168-9.51296M841.08672 512h-38.05056c-5.24672 0-9.51168 4.26496-9.51168 9.51296s4.26496 9.51296 9.51168 9.51296h38.05056c5.248 0 9.51168-4.26368 9.51168-9.51296S846.33344 512 841.08672 512M508.16 102.97728C282.26432 102.97728 99.136 286.10432 99.136 512c0 225.89568 183.12704 409.02272 409.024 409.02272 225.8944 0 409.02144-183.12704 409.02144-409.02272C917.18272 286.10432 734.0544 102.97728 508.16 102.97728m0 799.02208C292.7616 901.99936 118.16192 727.38816 118.16192 512 118.16192 296.61056 292.7616 122.00064 508.16 122.00064c215.38688 0 389.9968 174.60992 389.9968 389.99808 0.00128 215.38944-174.60992 390.00064-389.9968 390.00064M222.79552 512h-38.04928c-5.248 0-9.51296 4.26496-9.51296 9.51296s4.26496 9.51296 9.51296 9.51296h38.04928c5.248 0 9.51168-4.26368 9.51168-9.51296S228.04352 512 222.79552 512" fill="" p-id="2809"></path><path d="M546.20928 446.16704v8.76032h12.16768a76.672 76.672 0 0 0-12.16768-8.76032M508.16 531.02464h19.02464V512H508.16v19.02464z m57.07392-69.2416v12.16768h8.75904a76.25984 76.25984 0 0 0-8.75904-12.16768M584.25728 512c0-6.58688-0.92032-12.93952-2.48832-19.02464h-16.53504V512h19.02336z m-95.12192 0H508.16v-19.02464h-19.02592V512z m-19.02464 65.83296v-8.75904h-12.16896a76.73472 76.73472 0 0 0 12.16896 8.75904m19.02464 7.776c6.08384 1.56928 12.43904 2.48832 19.02592 2.48832v-19.02336h-19.02592v16.53504z m38.04928 0a75.50848 75.50848 0 0 0 19.02336-7.776v-8.75904h-19.02336v16.53504z m46.80832-35.55968a75.52768 75.52768 0 0 0 7.776-19.02336h-16.53504v19.02336h8.75904z m-84.8576-111.65696a75.45856 75.45856 0 0 0-19.02336 7.77472v8.76032h19.02336v-16.53504z m38.04928 0c-6.08512-1.57056-12.43904-2.4896-19.02464-2.4896v19.02464h19.02464v-16.53504z m-84.8576 35.5584a75.49696 75.49696 0 0 0-7.77472 19.02336h16.53504v-19.02336h-8.76032zM432.06272 512c0 6.58688 0.92032 12.9408 2.4896 19.02592h16.53504V512h-19.02464z m19.02464 50.21568v-12.16768h-8.76032a76.07296 76.07296 0 0 0 8.76032 12.16768m95.12192-107.28832h-19.02336v19.02336h19.02336v-19.02336z m-95.12192 95.12192h19.02336v-19.02336h-19.02336v19.02336z m19.02336 19.02464h19.02336v-19.02464h-19.02336v19.02464z m0-76.09984h-19.02336V512h19.02336v-19.02592z m0-38.04672h-12.16896a74.6752 74.6752 0 0 0-6.8544 6.85568v12.16768h19.02336v-19.02336z m76.09856 76.09728h19.02464V512h-19.02464v19.02464zM508.16 569.07392h19.02464v-19.02464H508.16v19.02464z m38.04928 0h12.16768a74.87744 74.87744 0 0 0 6.85696-6.85696v-12.16768h-19.02464v19.02464z m-76.09856-38.04928h19.02336V512h-19.02336v19.02464z m57.07392-57.07392H508.16v19.02336h19.02464v-19.02336zM508.16 454.92736h-19.02592v19.02336H508.16v-19.02336z m-19.02464 95.12192H508.16v-19.02336h-19.02592v19.02336z m0-76.09856h-19.02336v19.02336h19.02336v-19.02336z m38.04928 76.09856h19.02336v-19.02336h-19.02336v19.02336z m38.04928-76.09856h-19.02464v19.02336h19.02464v-19.02336zM527.18464 512h19.02336v-19.02464h-19.02336V512z" fill="" p-id="2810"></path><path d="M508.16 397.85344c-63.03744 0-114.14656 51.10912-114.14656 114.14528 0 63.03872 51.10912 114.14656 114.14656 114.14656 63.03744 0 114.14528-51.10912 114.14528-114.14656 0.00128-63.03616-51.10784-114.14528-114.14528-114.14528m0 190.24384c-42.02624 0-76.09856-34.0736-76.09856-76.09856 0-42.02368 34.07232-76.09728 76.09856-76.09728 42.02368 0 76.09728 34.0736 76.09728 76.09728 0 42.02496-34.0736 76.09856-76.09728 76.09856M508.16 26.88C240.2304 26.88 23.04 244.0704 23.04 512c0 267.92832 217.1904 485.12 485.12 485.12 267.92704 0 485.12-217.19296 485.12-485.12 0-267.9296-217.19296-485.12-485.12-485.12m0 932.19072C261.25312 959.07072 61.08928 758.90688 61.08928 512 61.08928 265.09312 261.25312 64.92928 508.16 64.92928c246.90688 0 447.07072 200.16384 447.07072 447.07072 0 246.90688-200.16384 447.07072-447.07072 447.07072" fill="" p-id="2811"></path></svg>